# xmcd CD database file
#
# Track frame offsets:
#	150
#	23304
#	41906
#	62044
#	76393
#	94424
#	114677
#	138580
#	152389
#	171270
#	196706
#	212253
#	228417
#
# Disc length: 3370 seconds
#
# Revision: 1
# Processed by: cddbd v1.5.2PL0 Copyright (c) Steve Scherf et al.
# Submitted via: CDex 1.51
#
DISCID=a20d280d
DTITLE=Hubert-Félix Thiéfaine and Paul Personne - Amicalement Blues
DYEAR=2007
DGENRE=Blues
TTITLE0=Avenue de l'amour
TTITLE1=Émeute émotionelle
TTITLE2=Amant sous contrôle
TTITLE3=Strindberg 2007
TTITLE4=L'appel de la forêt
TTITLE5=Les douceurs de la vengeance
TTITLE6=Distance
TTITLE7=Rendez-vous au dernier carrefour
TTITLE8=Spécial ado SMS blues
TTITLE9=Photographie d'un rêveur
TTITLE10=Your Terraplane is Ready Mister Bob!
TTITLE11=Juste avant l'enfer
TTITLE12=Le vieux bluesman et la bimbo
EXTD=YEAR: 2007
EXTT0=
EXTT1=
EXTT2=
EXTT3=
EXTT4=
EXTT5=
EXTT6=
EXTT7=
EXTT8=
EXTT9=
EXTT10=
EXTT11=
EXTT12=
PLAYORDER=
